<svg xmlns="http://www.w3.org/2000/svg" viewBox="0 0 61.27 64.35"><defs><style>.cls-1{fill:#58595b;}</style></defs><title>Fichier 1</title><g id="Calque_2" data-name="Calque 2"><g id="Capa_1" data-name="Capa 1"><path class="cls-1" d="M43.89,54.43H18.19L31,41.57ZM23,52.43h16l-8-8Z"/><path class="cls-1" d="M31,23.14,18.19,10.28h25.7ZM23,12.28l8,8,8-8Z"/><path class="cls-1" d="M53.51,45.65,40.67,32.78,53.51,19.91Zm-10-12.87,8,8V24.75Z"/><path class="cls-1" d="M8.3,45.65V19.91L21.14,32.78Zm2-20.9V40.82l8-8Z"/><path class="cls-1" d="M31,36.61a3.83,3.83,0,1,1,3.83-3.83A3.83,3.83,0,0,1,31,36.61ZM31,31a1.83,1.83,0,1,0,1.83,1.83A1.83,1.83,0,0,0,31,31Z"/><rect class="cls-1" width="61.27" height="2"/><rect class="cls-1" y="62.35" width="61.27" height="2"/></g></g></svg>